Stairs_down
version=1
nRows=37
nColumns=18
inDegrees=yes

Units are S.I. units (second, meters, Newtons, ...)
Angles are in degrees.

endheader
time	pelvis_tilt	pelvis_list	pelvis_rotation	pelvis_tx	pelvis_ty	pelvis_tz	hip_flexion_r	hip_adduction_r	hip_rotation_r	knee_angle_r	ankle_angle_r	hip_flexion_l	hip_adduction_l	hip_rotation_l	knee_angle_l	ankle_angle_l	lumbar_extension
1.375	-1.10483996	7.88525673	-7.54163733	0.50537126	1.31744476	0.04397892	21.51674819	-2.77412803	0	-53.94344158	20.1348096	22.2890084	5.98737102	0	-9.56631114	-29.88846563	-5.00000214
1.383	-1.10779648	7.80122471	-7.79016652	0.50813064	1.31269879	0.04405433	21.9740489	-2.67250294	0	-55.30481466	20.83960529	22.01142976	6.04432384	0	-9.00485076	-30.09496933	-5.00000214
1.392	-1.13140417	7.75145146	-7.95116573	0.51080751	1.30780287	0.04377742	22.45916291	-2.64484044	0	-56.69429288	21.80405978	21.83513625	6.1915191	0	-8.60423349	-30.56411218	-5.00000214
1.4	-1.16663074	7.7019571	-8.10594969	0.51363436	1.30285323	0.04359776	22.89440606	-2.61337507	0	-57.99716738	22.69090229	21.61860598	6.34622267	0	-8.18774021	-30.86609422	-5.00000214
1.408	-1.20470955	7.62294398	-8.22468562	0.51644042	1.29783936	0.04350704	23.30740185	-2.53579374	0	-59.27847048	23.51508811	21.40353521	6.47189903	0	-7.79921547	-31.2492856	-5.00000214
1.417	-1.255196	7.54347073	-8.31750892	0.51917012	1.29272882	0.04336801	23.73685685	-2.45728679	0	-60.56056438	24.32725877	21.17645946	6.60518936	0	-7.43604287	-31.65926171	-5.00000214
1.425	-1.30088687	7.46739375	-8.41137724	0.5218399	1.28767886	0.04314147	24.14153125	-2.39352783	0	-61.80482635	25.12985471	20.92809121	6.76547805	0	-7.13023323	-32.06717766	-5.00000214
1.433	-1.36130019	7.39382157	-8.53487987	0.52444298	1.28260795	0.04308564	24.59324591	-2.30992933	0	-63.07937219	25.75535654	20.65730399	6.90344923	0	-6.79380057	-32.29629016	-5.00000214
1.442	-1.43864478	7.35040907	-8.60460283	0.52703991	1.27739945	0.04281378	25.06530706	-2.278018	0	-64.40414629	26.5481971	20.48211173	7.10288347	0	-6.57893863	-32.77350695	-5.00000214
1.45	-1.51743962	7.27361205	-8.69261802	0.52972087	1.2721817	0.04267289	25.47552562	-2.20056346	0	-65.62616859	27.30332537	20.30655227	7.25361044	0	-6.4433783	-33.15101536	-5.00000214
1.458	-1.57192529	7.19368483	-8.8347724	0.53226353	1.26692917	0.04261939	25.85069429	-2.10814102	0	-66.80499838	28.26066914	20.12450586	7.37639589	0	-6.35480457	-33.59124737	-5.00000214
1.467	-1.61913581	7.10773393	-8.96147105	0.5349771	1.2617325	0.04269921	26.13872058	-1.97307081	0	-67.8703488	29.19057289	19.85519112	7.47415401	0	-6.18376288	-33.88865366	-5.00000214
1.475	-1.71102154	6.99712812	-9.05635554	0.53777112	1.25652032	0.04272242	26.50311224	-1.82770767	0	-69.01754136	29.7925999	19.574151	7.55083821	0	-5.96594452	-33.9956168	-5.00000214
1.483	-1.79088038	6.93498464	-9.24313889	0.54051756	1.25125453	0.04257933	26.85954479	-1.73508836	0	-70.14339852	30.57752732	19.30499686	7.66555414	0	-5.7850193	-34.14567831	-5.00000214
1.492	-1.83914365	6.87697222	-9.43651728	0.54342956	1.24604068	0.04245533	27.13748708	-1.66279103	0	-71.27327357	31.46316855	18.99442277	7.7848521	0	-5.64152436	-34.24894556	-5.00000214
1.5	-1.88050603	6.78976454	-9.54235687	0.54635167	1.24086079	0.04235264	27.38837765	-1.54958193	0	-72.37203672	32.37372259	18.70276118	7.88418361	0	-5.57709271	-34.23671366	-5.00000214
1.508	-1.97248324	6.66858448	-9.62380745	0.54918918	1.23570181	0.04238956	27.74999397	-1.37459865	0	-73.52204378	32.84093789	18.39330461	7.91164075	0	-5.38243116	-34.1324907	-5.00000214
1.517	-2.03948489	6.60062679	-9.7291446	0.55225836	1.23059451	0.04208891	28.12225951	-1.32303219	0	-74.74129177	33.3597088	18.09742174	8.00067122	0	-5.27078383	-33.97390288	-5.00000214
1.525	-2.1337317	6.53225935	-9.8170217	0.5555751	1.22562878	0.04182186	28.49186319	-1.28546673	0	-75.92183746	33.80913274	17.80401388	8.07159404	0	-5.17040612	-33.71729888	-5.00000214
1.533	-2.25358437	6.44077338	-9.82796174	0.55880714	1.22065788	0.04152241	28.92077871	-1.22895304	0	-77.13615325	34.15968897	17.60122344	8.11533198	0	-5.24665675	-33.15694288	-5.00000214
1.542	-2.27376173	6.33917313	-9.83723595	0.56213199	1.21573812	0.04130631	29.19882831	-1.18751486	0	-78.31005045	34.56879326	17.22578756	8.15660381	0	-5.20287351	-32.60124578	-5.00000214
1.55	-2.25871857	6.23983878	-9.82404751	0.56532305	1.2109758	0.0410733	29.43189949	-1.15725501	0	-79.47476282	34.80902767	16.82770075	8.21217998	0	-5.22498887	-31.78283049	-5.00000214
1.558	-2.30468341	6.15530128	-9.79648418	0.5685228	1.20634555	0.04071754	29.71390625	-1.1432465	0	-80.58449503	35.03089595	16.51011446	8.25953856	0	-5.27895234	-30.82057443	-5.00000214
1.567	-2.38347442	6.05890285	-9.7514707	0.57199814	1.20180519	0.04044128	29.97880593	-1.11375542	0	-81.64542566	35.20915603	16.18978895	8.27751357	0	-5.33582567	-29.63867085	-5.00000214
1.575	-2.47427995	5.95351855	-9.71936246	0.57562755	1.19712022	0.04022689	30.28263129	-1.07519016	0	-82.75286863	35.25976817	15.86698802	8.27252198	0	-5.4679631	-27.66749369	-5.00000214
1.583	-2.53546359	5.88677914	-9.61101779	0.57933448	1.19274644	0.03968765	30.53974902	-1.11987642	0	-83.82868933	35.40126184	15.50680875	8.37541019	0	-5.63470263	-25.17578917	-5.00000214
1.592	-2.53895412	5.89830418	-9.5168919	0.58326557	1.18864315	0.03883338	30.7196433	-1.32612627	0	-84.88968433	35.48254408	15.05885121	8.5869358	0	-5.75941191	-22.31036837	-5.00000214
1.6	-2.62805934	5.85444092	-9.45168504	0.58679999	1.18454068	0.03827018	31.00777057	-1.38691029	0	-85.91622287	35.49545033	14.81047311	8.69341299	0	-5.9804819	-19.48633907	-5.00000214
1.608	-2.70442416	5.83653019	-9.28639855	0.59061653	1.18063399	0.03751346	31.20886675	-1.53255771	0	-86.8749204	35.49282281	14.51579271	8.86811975	0	-6.09213917	-17.00455992	-5.00000214
1.617	-2.78772635	5.80278358	-9.16082883	0.59458917	1.17653813	0.03681964	31.427893	-1.6608322	0	-87.88110749	35.4015634	14.25842646	9.03153253	0	-6.29269812	-14.84773236	-5.00000214
1.625	-2.89613547	5.7581622	-9.02718628	0.5985726	1.17240963	0.03616269	31.66392481	-1.76159472	0	-88.86160497	35.27694704	14.0494611	9.15942441	0	-6.49791318	-13.09957252	-5.00000214
1.633	-2.99369327	5.71789568	-8.91476437	0.60258264	1.16838997	0.03555345	31.83728661	-1.87376139	0	-89.76734631	35.25829275	13.85667169	9.29337604	0	-6.66147375	-11.6283103	-5.00000214
1.642	-3.07369697	5.6678479	-8.77262742	0.60669241	1.1645818	0.03487253	31.97519932	-2.00801318	0	-90.64370606	35.11888731	13.70030196	9.47728047	0	-6.85367297	-10.12306438	-5.00000214
1.65	-3.11943898	5.68770078	-8.59738916	0.61089623	1.1611581	0.03384872	32.09295875	-2.30752618	0	-91.51663365	34.89854759	13.65099136	9.81214908	0	-7.27163711	-8.81596901	-5.00000214
1.658	-3.19790677	5.72551839	-8.40346891	0.61476185	1.15814851	0.03280017	32.29383228	-2.62181637	0	-92.36797674	34.57286889	13.9702067	10.14762501	0	-8.36143464	-7.37194509	-5.00000214
1.667	-3.27676511	5.79437048	-8.31153414	0.61878577	1.15580397	0.03178407	32.52178855	-2.94791232	0	-93.11516329	34.06660456	14.52673629	10.39868701	0	-9.71122067	-6.09305055	-5.00000214
1.675	-3.33967196	5.8597976	-8.21495945	0.6230695	1.15399797	0.030856	32.68519895	-3.24268973	0	-93.73136948	33.47841574	15.20704873	10.53925956	0	-11.1651973	-5.16697848	-5.00000214
